<?xml version="1.0" encoding="utf-8"?>
<!-- Generator: Adobe Illustrator 15.0.2, SVG Export Plug-In . SVG Version: 6.00 Build 0)  -->
<!DOCTYPE svg PUBLIC "-//W3C//DTD SVG 1.1//EN" "http://www.w3.org/Graphics/SVG/1.1/DTD/svg11.dtd">
<svg version="1.1" xmlns="http://www.w3.org/2000/svg" xmlns:xlink="http://www.w3.org/1999/xlink" x="0px" y="0px"
	 width="300.325px" height="28.229px" viewBox="0 0 300.325 28.229" enable-background="new 0 0 300.325 28.229"
	 xml:space="preserve">
<g id="Layer_1" display="none">
	<g display="inline">
		<path d="M103.702,115.595l-7.2-67.497c-0.15-1.35-0.15-4.5-0.15-5.7c-0.3,0.9-1.65,3.3-2.55,5.1l-39.599,72.447L14.456,47.648
			c-1.05-1.95-1.95-3.9-2.55-5.4c0.3,1.5,0.3,3.75,0.15,5.85l-6.9,67.497h-15.299L3.356-1.1l49.048,87.896
			c0.45,0.6,1.8,3.6,1.95,4.8c0.3-1.2,1.65-4.2,1.95-4.8L105.202-0.95l13.649,116.545H103.702z"/>
		<path d="M141.505,115.445V2.2h61.947v12.75h-47.548v33.599h38.248v12.899h-38.248v41.398l52.348-0.15v12.75H141.505z"/>
		<path d="M286.402,72.097v-13.05h45.448c-0.3,41.099-26.699,58.798-54.148,58.798c-33.448,0-60.447-26.249-60.447-58.647
			c0-33.149,25.799-59.398,60.598-59.398c26.849,0,41.998,14.7,42.748,15.6l-7.5,10.649c-0.75-0.9-14.399-13.199-35.549-13.199
			c-27.899,0-44.998,20.399-44.998,46.648c0,23.399,18.899,45.448,46.198,45.448c19.499,0,36.148-12.3,37.948-32.849H286.402z"/>
		<path d="M423.8,115.595V64.297h-58.647v51.298h-14.399V2.05h14.399v49.198H423.8V2.05H438.2v113.545H423.8z"/>
		<path d="M545.299,115.595L533.15,88.896h-53.998l-12.3,26.699h-15.899L506.001-2l55.198,117.595H545.299z M508.551,35.048
			c-1.05-2.25-2.25-5.399-2.55-6.45c-0.3,1.05-1.35,4.2-2.4,6.45l-18.749,40.798h42.298L508.551,35.048z"/>
		<path d="M588.051,33.999l0.15,81.597h-14.399l0.15-116.545l85.796,86.396L659.599,2.05h14.399l-0.15,117.595L588.051,33.999z"/>
		<path d="M801.346,35.048l-35.849,85.347L723.499,2.05h15.75l27.148,77.847c0.6,1.65,0.75,3.3,0.9,5.55
			c0.149-2.25,0.449-3.9,1.05-5.55L801.196-0.95l33.898,80.847c0.6,1.5,0.9,3.3,1.05,5.55c0.15-2.25,0.3-4.05,0.9-5.55L863.443,2.05
			h15.449l-41.098,118.495L801.346,35.048z"/>
		<path d="M965.895,115.595l-12.149-26.699h-53.998l-12.299,26.699h-15.899L926.597-2l55.197,117.595H965.895z M929.146,35.048
			c-1.051-2.25-2.25-5.399-2.55-6.45c-0.301,1.05-1.351,4.2-2.4,6.45l-18.749,40.798h42.298L929.146,35.048z"/>
		<path d="M994.547,115.445V2.05h14.399v100.646h48.147v12.75H994.547z"/>
		<path d="M1083.798,115.595V14.949h-33.148V2.2h80.696v12.75h-33.148v100.646H1083.798z"/>
		<path d="M1148.147,115.445V2.2h61.947v12.75h-47.548v33.599h38.248v12.899h-38.248v41.398l52.348-0.15v12.75H1148.147z"/>
		<path d="M1298.293,115.595l-44.998-44.698h-4.35v44.698h-14.399V2.05h22.648c19.5,0,44.698,5.85,44.698,33.599
			c0,18.299-12.899,31.799-32.698,34.499l49.348,45.448H1298.293z M1257.045,58.147c19.499,0,29.849-9.45,29.849-22.349
			c0-14.25-10.05-20.849-26.849-20.849h-11.1v43.198H1257.045z"/>
	</g>
</g>
<g id="Layer_1_copy">
	<g>
		<polygon fill="#514D4A" points="46.81,0.967 29.741,0.967 30.783,3.904 46.81,3.904 		"/>
		<polygon fill="#514D4A" points="43.463,11.642 33.529,11.642 34.583,14.612 43.463,14.612 		"/>
		<polygon fill="#514D4A" points="48.537,24.112 37.961,24.132 38.997,27.048 48.537,27.048 		"/>
		<path fill="#514D4A" d="M65.614,17.065V14.06h10.467c-0.068,9.465-6.149,13.542-12.47,13.542c-7.704,0-13.922-6.045-13.922-13.507
			c0-7.635,5.942-13.68,13.956-13.68c6.184,0,9.673,3.385,9.846,3.593l-1.728,2.452c-0.173-0.207-3.316-3.04-8.187-3.04
			c-6.426,0-10.364,4.698-10.364,10.744c0,5.389,4.353,10.467,10.64,10.467c4.491,0,8.325-2.833,8.74-7.565H65.614z"/>
		<path fill="#514D4A" d="M97.257,27.083V15.269H83.75v11.814h-3.316V0.933h3.316v11.33h13.507V0.933h3.316v26.15H97.257z"/>
		<path fill="#514D4A" d="M125.239,27.083l-2.798-6.149h-12.436l-2.833,6.149h-3.662L116.189,0l12.712,27.083H125.239z
			 M116.775,8.533c-0.241-0.519-0.518-1.244-0.586-1.486c-0.069,0.242-0.311,0.967-0.553,1.486l-4.318,9.396h9.741L116.775,8.533z"
			/>
		<path fill="#514D4A" d="M135.085,8.291l0.035,18.792h-3.316l0.034-26.841l19.759,19.897l-0.035-19.207h3.316l-0.034,27.083
			L135.085,8.291z"/>
		<path fill="#514D4A" d="M210.432,0.797l-1.418,4.087c0.435,1.01,1.438,3.234,1.631,3.648l4.283,9.396H204.49l-1.042,3.005h12.863
			l2.798,6.149h3.662L210.432,0.797z"/>
		<path fill="#514D4A" d="M225.707,27.048V0.933h3.316v23.179h11.089v2.936H225.707z"/>
		<path fill="#514D4A" d="M246.262,27.083V3.904h-7.635V0.967h18.585v2.937h-7.635v23.179H246.262z"/>
		<path fill="#514D4A" d="M261.083,27.048V0.967h14.267v2.937h-10.951v7.738h8.809v2.97h-8.809v9.535l12.056-0.035v2.936H261.083z"
			/>
		<path fill="#514D4A" d="M295.662,27.083l-10.363-10.294h-1.002v10.294h-3.317V0.933h5.217c4.49,0,10.294,1.347,10.294,7.737
			c0,4.215-2.971,7.324-7.531,7.945l11.365,10.467H295.662z M286.163,13.853c4.491,0,6.874-2.177,6.874-5.147
			c0-3.281-2.314-4.801-6.183-4.801h-2.557v9.949H286.163z"/>
		<path fill="#514D4A" d="M17.859,19.938l8.256-19.656l9.673,27.256h-3.627L25.908,9.609c-0.138-0.38-0.173-0.76-0.208-1.278
			c-0.034,0.518-0.104,0.898-0.242,1.278l-7.565,18.62l-7.807-18.62C9.949,9.264,9.879,8.85,9.845,8.332
			C9.811,8.85,9.776,9.264,9.638,9.609l-6.08,17.929H0l9.465-27.29L17.859,19.938z"/>
		<path fill="#514D4A" d="M189.217,8.451l-8.256,19.656l-9.672-27.255h3.627l6.252,17.928c0.138,0.38,0.173,0.76,0.208,1.278
			c0.034-0.518,0.103-0.898,0.241-1.278l7.565-18.62l7.808,18.62c0.138,0.345,0.208,0.76,0.242,1.278
			c0.035-0.518,0.069-0.933,0.207-1.278l6.08-17.928h3.558l-9.465,27.29L189.217,8.451z"/>
	</g>
</g>
</svg>
